# xmcd CD database file
#
# Track frame offsets:
#	150
#	12097
#	33865
#	56740
#	77676
#	99689
#	124182
#	146506
#	170551
#	193322
#	217346
#
# Disc length: 3285 seconds
#
# Revision: 0
# Processed by: cddbd v1.5.1PL0 Copyright (c) Steve Scherf et al.
# Submitted via: CDex 1.51
#
DISCID=9f0cd30b
DTITLE=Various Artist - キャラクターカーニバル2001 メモリアルアルバム
DYEAR=2001
DGENRE=Game
TTITLE0=CC2001 Original - Jamboree 2001
TTITLE1=プリズムキャット - Run for Tommorow
TTITLE2=二見直子 - みずいろ
TTITLE3=八木田真樹 - Chain
TTITLE4=八木田真樹 - WHITE NIGHT
TTITLE5=二見直子 - ALONE AGAIN
TTITLE6=巻口容子 - 冷たい雫
TTITLE7=二見直子 - 見上げた空の蒼
TTITLE8=巻口容子 - Blue Rain
TTITLE9=八木田真樹 - Feel in tears
TTITLE10=プリズムキャット - 楽園への翼 〜Go to Heaven〜
EXTD=YEAR: 2001
EXTT0=
EXTT1=
EXTT2=
EXTT3=
EXTT4=
EXTT5=
EXTT6=
EXTT7=
EXTT8=
EXTT9=
EXTT10=
PLAYORDER=
